<svg version="1" xmlns="http://www.w3.org/2000/svg" width="682.667" height="682.667" viewBox="0 0 512.000000 512.000000"><path d="M455.7 56.8l-27.9 27.9 2.1 3.4c2.3 3.7 2.7 9.2 1.1 13.6-.6 1.6-47.8 49.5-108.6 110.4L214.9 319.6l1.9 3.5c6.2 10.6 8.5 27.2 5.8 40.8-4.8 23.6-20.7 41.6-43 48.7-20.5 6.4-41 2.9-58.5-10.1l-6.4-4.7-33.9 33.8-33.9 33.9 4.3 3.8c12.3 10.8 23.6 18.6 37.4 25.5 44.9 22.5 97.9 22.5 142.8 0 11.4-5.7 15.2-8.1 25.8-16 13.5-10.2 28.2-26.1 38-41.4 4.2-6.5 12.3-23.2 15.3-31.4 7-19.3 10.6-46.3 8.7-65.5l-1-11 85.8-86c70-70.1 86.9-87.5 91.3-94.3 23.7-35.6 21.5-80.6-5.4-113.7-2.9-3.6-5.5-6.5-5.8-6.5-.4 0-13.1 12.5-28.4 27.8zM64.9 223.7c-1.3 1.6-1.2 1.7.4.4.9-.7 1.7-1.5 1.7-1.7 0-.8-.8-.3-2.1 1.3zM60.4 227.2l-1.9 2.3 2.3-1.9c2.1-1.8 2.7-2.6 1.9-2.6-.2 0-1.2 1-2.3 2.2zM53.5 233.2l-4 4.3 4.3-4c2.3-2.1 4.2-4 4.2-4.2 0-.8-.9 0-4.5 3.9zM41 245.5c-2.4 2.5-4.2 4.5-3.9 4.5.3 0 2.5-2 4.9-4.5 2.4-2.5 4.2-4.5 3.9-4.5-.3 0-2.5 2-4.9 4.5zM34.4 253.2l-1.9 2.3 2.3-1.9c2.1-1.8 2.7-2.6 1.9-2.6-.2 0-1.2 1-2.3 2.2zM30 259c-1.2 1.6-1.9 3-1.6 3 .2 0 1.4-1.4 2.6-3 1.2-1.7 1.9-3 1.6-3-.2 0-1.4 1.3-2.6 3zM24 268c-.6 1.1-.8 2-.6 2 .3 0 1-.9 1.6-2 .6-1.1.8-2 .6-2-.3 0-1 .9-1.6 2zM21 273c-.6 1.1-.8 2-.6 2 .3 0 1-.9 1.6-2 .6-1.1.8-2 .6-2-.3 0-1 .9-1.6 2zM.5 343.5c-.4 5.2-.3 13.5.2 18.3 1 8.4 1 8 1.2-9.6 0-10-.1-18.2-.3-18.2-.2 0-.7 4.3-1.1 9.5zM39 456.4c0 .2.8 1 1.8 1.7 1.5 1.3 1.6 1.2.3-.4s-2.1-2.1-2.1-1.3z"/></svg>